<svg id="Lager_1" data-name="Lager 1" xmlns="http://www.w3.org/2000/svg" viewBox="0 0 400 100"><defs><style>.cls-1{fill:none;stroke:#fff;stroke-linecap:round;stroke-miterlimit:10;stroke-width:2px;}.cls-2{opacity:0.15;}.cls-2,.cls-3{isolation:isolate;}</style></defs><path d="M151.6,67.35c-2.84,2.83-2.78,7.4-3,13.36a30,30,0,0,0,.66,6.26c5.4,1.87,13.35,3.81,24.6,4.85,0,0-11.44-6.64-18.25-17A39,39,0,0,0,166.8,51.63a55.85,55.85,0,0,1-5.92,9.47C159.2,62.87,154.43,64.52,151.6,67.35Z"/><path d="M140.3,10.56a37.81,37.81,0,0,0-13.37.6c-6.22,1.65-11.33,12-11.33,12s-1.79,2.32-1.53,4.39,1.21,4.3-.07,5.84a37.23,37.23,0,0,1-6.37,5.45c-1.69,1.07-3.45,1.58-3.13,2.57s1.73,2,2.44,2.93,1.31,1.42.34,2.1-2.22,1.33-2.46,2.36,1,2.1,1.34,2.52c.15.16-1.44.38-1.47,1.28s1.24,1.75,1.22,2.65-1.57,5.3-1.69,5.83a3.41,3.41,0,0,0,.83,2.75c.89.93,2.07,1.4,5.24,1.93s5.23,1.91,6,3.36,1,3.66.93,7.16-.11,3.65-.27,6,.19,4.8-3.62,8.68c-.29.29-.6.6-.92.89H112c-20.9,0-39.07-9.28-48.38-22.94-.47-.68-.91-1.38-1.33-2.09a36.87,36.87,0,0,1-5-14A35.34,35.34,0,0,1,57,48.06c0-.9,0-1.79.13-2.68A36.22,36.22,0,0,1,60.37,33a40.12,40.12,0,0,1,4.26-7.16h0A47.25,47.25,0,0,1,73.25,17l.76-.59C83.88,8.9,97.26,4.28,112,4.28A65.49,65.49,0,0,1,140.3,10.56Z"/><path class="cls-1" d="M102.63,50.92,96.32,46.7a1.14,1.14,0,0,0-1.39.9l-1.15,6.17a.56.56,0,0,1-.43.44.53.53,0,0,1-.62-.48L89.81,35.56a.93.93,0,0,0-.71-.82.89.89,0,0,0-1,.77L84.6,54.2a.65.65,0,0,1-.52.53.63.63,0,0,1-.71-.57L82.32,25.33a.71.71,0,1,0-1.42,0L73.28,66a.47.47,0,1,1-.94,0L74,16.41l-.76.59L63.62,68.91l-1.18-1.86a.8.8,0,0,1-.13-.5L64.2,34.31A.84.84,0,0,0,62.55,34L57.22,51.94"/><g class="cls-2"><path d="M163.32,16.38l-9.17,30.35h-7.64L137.4,16.38H145L151,38.08l6.32-21.7Z"/><path d="M175.05,15.76v6.63h-6.62V15.76Zm0,8.52V46.73h-6.62V24.28Z"/><path d="M200,29.7,195.17,31q-.84-3-4.38-3c-2.22,0-3.33.68-3.33,2a1.53,1.53,0,0,0,.61,1.28,8,8,0,0,0,3.19.81A29.06,29.06,0,0,1,197,33.24a5.83,5.83,0,0,1,2.92,2.24A6.72,6.72,0,0,1,201,39.37,7,7,0,0,1,198.32,45q-2.64,2.17-7.37,2.18-8.58,0-10.25-6.65l5.58-.82q.69,3,5,3a6,6,0,0,0,2.78-.59,1.79,1.79,0,0,0,1.13-1.59c0-1-.84-1.66-2.51-1.85q-6.81-.84-8.95-2.61a6,6,0,0,1-2.15-4.92,6.62,6.62,0,0,1,2.5-5.29q2.48-2.08,7-2.09a10.29,10.29,0,0,1,5.69,1.4A8.76,8.76,0,0,1,200,29.7Z"/><path d="M214,15.76v6.63h-6.62V15.76Zm0,8.52V46.73h-6.62V24.28Z"/><path d="M228.8,16.38V27.1a5.91,5.91,0,0,1,5.56-3.29,7.13,7.13,0,0,1,6.11,3.12q2.25,3.12,2.25,8.57A14.22,14.22,0,0,1,240.41,44a8.69,8.69,0,0,1-10.36,2.45,8.65,8.65,0,0,1-2.86-3.14,10.19,10.19,0,0,0-1.48,3.45h-3.54V16.38Zm0,21.46a5.46,5.46,0,0,0,1,3.55,3,3,0,0,0,2.37,1.2,3.24,3.24,0,0,0,2.71-1.45q1.06-1.45,1.07-5.66,0-4.78-1.1-6a3.3,3.3,0,0,0-2.51-1.22,3,3,0,0,0-2.57,1.37,6.82,6.82,0,0,0-1,3.92Z"/><path d="M249.65,46.73V16.38h6.62V46.73Z"/><path d="M284.57,36.61H270.12c0,.4,0,.75,0,1a4.74,4.74,0,0,0,1.28,3.62,4.24,4.24,0,0,0,3.05,1.23q3.31,0,4-3.54l6,.45q-2.52,7.77-10.21,7.78a11.24,11.24,0,0,1-5.7-1.35,10.63,10.63,0,0,1-3.87-3.92,12,12,0,0,1-1.52-6.18,12.23,12.23,0,0,1,3.05-8.65,10.81,10.81,0,0,1,15.3-.23Q284.58,29.92,284.57,36.61ZM270.1,32.77h8c-.21-3.08-1.48-4.63-3.8-4.63C271.79,28.14,270.39,29.69,270.1,32.77Z"/></g><g class="cls-3"><path d="M161.69,14.75,152.52,45.1h-7.64l-9.11-30.35h7.57l6.07,21.7,6.32-21.7Z"/><path d="M173.42,14.13v6.63H166.8V14.13Zm0,8.52V45.1H166.8V22.65Z"/><path d="M198.37,28.07l-4.83,1.29q-.84-3-4.38-3.05c-2.22,0-3.33.68-3.33,2a1.53,1.53,0,0,0,.61,1.28,8,8,0,0,0,3.19.81,30,30,0,0,1,5.69,1.17,5.91,5.91,0,0,1,2.92,2.25,6.72,6.72,0,0,1,1.08,3.89,7,7,0,0,1-2.63,5.65q-2.64,2.18-7.37,2.18-8.58,0-10.25-6.65l5.58-.82q.69,3,5,3a6,6,0,0,0,2.78-.59,1.79,1.79,0,0,0,1.13-1.59c0-1-.84-1.66-2.51-1.85q-6.81-.84-8.95-2.61a6,6,0,0,1-2.14-4.92,6.61,6.61,0,0,1,2.49-5.29q2.48-2.09,7-2.09a10.29,10.29,0,0,1,5.69,1.4A8.76,8.76,0,0,1,198.37,28.07Z"/><path d="M212.41,14.13v6.63h-6.62V14.13Zm0,8.52V45.1h-6.62V22.65Z"/><path d="M227.17,14.75V25.47a5.91,5.91,0,0,1,5.56-3.29,7.13,7.13,0,0,1,6.11,3.12q2.25,3.12,2.25,8.57a14.22,14.22,0,0,1-2.31,8.47,8.69,8.69,0,0,1-10.36,2.45,8.65,8.65,0,0,1-2.86-3.14,10.19,10.19,0,0,0-1.48,3.45h-3.54V14.75Zm0,21.46a5.46,5.46,0,0,0,1,3.55,3,3,0,0,0,2.37,1.2,3.24,3.24,0,0,0,2.71-1.45q1.06-1.45,1.07-5.66,0-4.79-1.1-6a3.31,3.31,0,0,0-2.51-1.23A3,3,0,0,0,228.13,28a6.82,6.82,0,0,0-1,3.92Z"/><path d="M248,45.1V14.75h6.62V45.1Z"/><path d="M282.94,35H268.49c0,.4,0,.75,0,1.05a4.74,4.74,0,0,0,1.28,3.62,4.24,4.24,0,0,0,3.05,1.23q3.31,0,4-3.54l6,.44q-2.52,7.78-10.21,7.79a11.24,11.24,0,0,1-5.7-1.35A10.63,10.63,0,0,1,263,40.3a12,12,0,0,1-1.52-6.18,12.23,12.23,0,0,1,3.05-8.65,10.81,10.81,0,0,1,15.3-.23Q282.95,28.29,282.94,35Zm-14.47-3.84h8c-.21-3.08-1.48-4.63-3.8-4.63C270.16,26.51,268.76,28.06,268.47,31.14Z"/></g><g class="cls-2"><path d="M202.8,65.34l-6.05,2a5,5,0,0,0-5.16-3.61c-2.81,0-4.22.92-4.22,2.74a2.42,2.42,0,0,0,.79,1.84,7.77,7.77,0,0,0,3.56,1.32,34.86,34.86,0,0,1,6.8,1.89,8.75,8.75,0,0,1,3.63,3.08,8.14,8.14,0,0,1,1.47,4.74,9.49,9.49,0,0,1-3.16,7.12q-3.17,3-9.39,3a14.26,14.26,0,0,1-7.94-2.13,10.09,10.09,0,0,1-4.32-6.3l6.58-1.49q1.11,4.25,6.17,4.25a5.82,5.82,0,0,0,3.64-.95,2.8,2.8,0,0,0,1.2-2.25,2.37,2.37,0,0,0-1.09-2.07,13.09,13.09,0,0,0-4.2-1.38q-5.79-1.2-8.26-3.28a7.52,7.52,0,0,1-2.46-6.08A9,9,0,0,1,183.33,61a11.15,11.15,0,0,1,8-2.78Q200.25,58.21,202.8,65.34Z"/><path d="M210.64,96.6v-30h6.09v3.29a6,6,0,0,1,5.92-3.76,7.29,7.29,0,0,1,6,2.92q2.32,2.92,2.32,8.51c0,4-.78,6.94-2.34,8.94a7.4,7.4,0,0,1-6.11,3,5.69,5.69,0,0,1-5.42-3V96.6Zm6.43-17.41a12.15,12.15,0,0,0,.29,3.29,3.36,3.36,0,0,0,1.22,1.64,3.25,3.25,0,0,0,2,.72A3.05,3.05,0,0,0,223,83.45q1.07-1.4,1.06-6.12c0-4.44-1.17-6.65-3.51-6.65a3.22,3.22,0,0,0-2.42,1.18c-.73.78-1.09,2.12-1.09,4Z"/><path d="M258.06,78.9H243.61c0,.4,0,.75,0,1a4.74,4.74,0,0,0,1.28,3.62,4.24,4.24,0,0,0,3,1.23q3.32,0,4-3.54l6,.45q-2.5,7.77-10.2,7.78a11.24,11.24,0,0,1-5.7-1.35,10.48,10.48,0,0,1-3.87-3.92A11.9,11.9,0,0,1,236.61,78a12.19,12.19,0,0,1,3-8.65,10.81,10.81,0,0,1,15.3-.23Q258.06,72.21,258.06,78.9Zm-14.47-3.84h8c-.21-3.08-1.48-4.63-3.8-4.63C245.28,70.43,243.88,72,243.59,75.06Z"/><path d="M285.09,78.9H270.64c0,.4,0,.75,0,1a4.78,4.78,0,0,0,1.27,3.62A4.28,4.28,0,0,0,275,84.8q3.32,0,4-3.54l6,.45q-2.51,7.77-10.2,7.78a11.24,11.24,0,0,1-5.7-1.35,10.48,10.48,0,0,1-3.87-3.92A11.9,11.9,0,0,1,263.64,78a12.19,12.19,0,0,1,3.05-8.65,10.81,10.81,0,0,1,15.3-.23Q285.1,72.21,285.09,78.9Zm-14.47-3.84h8c-.21-3.08-1.48-4.63-3.8-4.63C272.31,70.43,270.91,72,270.62,75.06Z"/><path d="M311.7,80.59A9.48,9.48,0,0,1,308.55,87a10.35,10.35,0,0,1-7.15,2.46,10.18,10.18,0,0,1-7.74-3.15,11.68,11.68,0,0,1-3-8.41,12,12,0,0,1,3.05-8.55,10.62,10.62,0,0,1,8.17-3.28,9.71,9.71,0,0,1,6.82,2.47,9,9,0,0,1,3,6.18l-6.18.35q-.31-4-3.52-4-3.93,0-3.93,6.44,0,4.29,1.1,5.45a3.55,3.55,0,0,0,2.68,1.16c2,0,3.27-1.3,3.67-3.89Z"/><path d="M324.68,58.67v11a6.29,6.29,0,0,1,6.07-3.52,7.23,7.23,0,0,1,3.87,1,5.42,5.42,0,0,1,2.27,2.54,12.2,12.2,0,0,1,.66,4.56V89h-6.63V76.35a19,19,0,0,0-.17-3.11,2.58,2.58,0,0,0-.81-1.42,2.32,2.32,0,0,0-1.59-.56,4,4,0,0,0-2.46,1c-.81.65-1.21,2-1.21,4.13V89h-6.43V58.67Z"/></g><g class="cls-3"><path d="M201.17,63.71l-6,2A5,5,0,0,0,190,62.13c-2.81,0-4.22.92-4.22,2.74a2.44,2.44,0,0,0,.79,1.84A7.77,7.77,0,0,0,190.09,68a34.86,34.86,0,0,1,6.8,1.89A8.75,8.75,0,0,1,200.52,73,8.11,8.11,0,0,1,202,77.74a9.51,9.51,0,0,1-3.16,7.12q-3.17,3-9.39,3a14.26,14.26,0,0,1-7.94-2.13,10.09,10.09,0,0,1-4.32-6.3l6.58-1.49q1.11,4.25,6.17,4.25a5.82,5.82,0,0,0,3.64-1,2.8,2.8,0,0,0,1.2-2.25,2.37,2.37,0,0,0-1.09-2.07,13.09,13.09,0,0,0-4.2-1.38c-3.86-.8-6.61-1.9-8.25-3.28a7.49,7.49,0,0,1-2.47-6.08,9,9,0,0,1,2.94-6.83,11.19,11.19,0,0,1,8-2.77Q198.61,56.58,201.17,63.71Z"/><path d="M209,95v-30h6.09v3.3A6,6,0,0,1,221,64.47a7.29,7.29,0,0,1,6,2.92c1.55,2,2.32,4.79,2.32,8.5,0,4-.78,7-2.34,9a7.4,7.4,0,0,1-6.11,3,5.69,5.69,0,0,1-5.42-3V95Zm6.43-17.41a12.15,12.15,0,0,0,.29,3.29A3.36,3.36,0,0,0,217,82.49a3.25,3.25,0,0,0,2,.72,3.05,3.05,0,0,0,2.43-1.39q1.07-1.39,1.06-6.12c0-4.44-1.17-6.65-3.51-6.65a3.22,3.22,0,0,0-2.42,1.18c-.73.78-1.09,2.12-1.09,4Z"/><path d="M256.43,77.27H242c0,.4,0,.75,0,1a4.74,4.74,0,0,0,1.28,3.62,4.24,4.24,0,0,0,3,1.23q3.32,0,4-3.54l6,.44q-2.5,7.79-10.2,7.79a11.24,11.24,0,0,1-5.7-1.35,10.55,10.55,0,0,1-3.87-3.92A11.9,11.9,0,0,1,235,76.41,12.23,12.23,0,0,1,238,67.76a10.82,10.82,0,0,1,15.3-.24Q256.44,70.58,256.43,77.27ZM242,73.43h8q-.31-4.64-3.8-4.63C243.65,68.8,242.25,70.34,242,73.43Z"/><path d="M283.46,77.27H269c0,.4,0,.75,0,1a4.78,4.78,0,0,0,1.27,3.62,4.28,4.28,0,0,0,3.06,1.23q3.31,0,4-3.54l6,.44q-2.51,7.79-10.2,7.79a11.24,11.24,0,0,1-5.7-1.35,10.55,10.55,0,0,1-3.87-3.92A11.9,11.9,0,0,1,262,76.41a12.19,12.19,0,0,1,3.05-8.65,10.82,10.82,0,0,1,15.3-.24Q283.47,70.58,283.46,77.27ZM269,73.43h8q-.32-4.64-3.8-4.63C270.68,68.8,269.28,70.34,269,73.43Z"/><path d="M310.07,79a9.48,9.48,0,0,1-3.15,6.44,10.35,10.35,0,0,1-7.15,2.46A10.18,10.18,0,0,1,292,84.71a11.68,11.68,0,0,1-3-8.41,12,12,0,0,1,3-8.55,10.62,10.62,0,0,1,8.17-3.28,9.71,9.71,0,0,1,6.82,2.47,9,9,0,0,1,3,6.18l-6.18.35c-.21-2.7-1.38-4-3.52-4q-3.93,0-3.93,6.44,0,4.29,1.1,5.45a3.57,3.57,0,0,0,2.68,1.16c2,0,3.27-1.3,3.67-3.89Z"/><path d="M323.05,57V68a6.29,6.29,0,0,1,6.07-3.52,7.29,7.29,0,0,1,3.88,1A5.45,5.45,0,0,1,335.26,68a12.2,12.2,0,0,1,.66,4.56V87.39h-6.63V74.72a19,19,0,0,0-.17-3.11,2.58,2.58,0,0,0-.81-1.42,2.32,2.32,0,0,0-1.59-.56,4,4,0,0,0-2.46,1c-.81.65-1.21,2-1.21,4.13V87.39h-6.43V57Z"/></g></svg>